name C:/MyDriveSym/Projects/mobilecap/Data\Session20210820_0002\mocap\ForceDataProcessed\walkingTS3_forces.mot
datacolumns 19
datarows 17
range 1.09450000 1.10250000
endheader 
time	R_ground_force_vx	R_ground_force_vy	R_ground_force_vz	R_ground_force_px	R_ground_force_py	R_ground_force_pz	R_ground_torque_x	R_ground_torque_y	R_ground_torque_z	L_ground_force_vx	L_ground_force_vy	L_ground_force_vz	L_ground_force_px	L_ground_force_py	L_ground_force_pz	L_ground_torque_x	L_ground_torque_y	L_ground_torque_z	
          1.09450000	          0.00000000	          0.00000000	          0.00000000	          1.30289100	          0.00000000	         -0.13783500	          0.00000000	          0.00000000	          0.00000000	         46.07452200	        851.09803200	         43.87952600	          0.99281600	          0.00600000	         -0.29060800	          0.00000000	          6.66247000	          0.00000000	
          1.09500000	          0.00000000	          0.00000000	          0.00000000	          1.30409700	          0.00000000	         -0.13782000	          0.00000000	          0.00000000	          0.00000000	         46.30792300	        851.71639500	         43.92802200	          0.99301700	          0.00600000	         -0.29058100	          0.00000000	          6.65374600	          0.00000000	
          1.09550000	          0.00000000	          0.00000000	          0.00000000	          1.30530300	          0.00000000	         -0.13780600	          0.00000000	          0.00000000	          0.00000000	         46.54170700	        852.33043100	         43.97593200	          0.99321700	          0.00600000	         -0.29055500	          0.00000000	          6.64489400	          0.00000000	
          1.09600000	          0.00000000	          0.00000000	          0.00000000	          1.30651000	          0.00000000	         -0.13779100	          0.00000000	          0.00000000	          0.00000000	         46.77587300	        852.94003900	         44.02324500	          0.99341700	          0.00600000	         -0.29052800	          0.00000000	          6.63591700	          0.00000000	
          1.09650000	          0.00000000	          0.00000000	          0.00000000	          1.30771600	          0.00000000	         -0.13777600	          0.00000000	          0.00000000	          0.00000000	         47.01042100	        853.54511800	         44.06995200	          0.99361700	          0.00600000	         -0.29050200	          0.00000000	          6.62681400	          0.00000000	
          1.09700000	          0.00000000	          0.00000000	          0.00000000	          1.30892200	          0.00000000	         -0.13776200	          0.00000000	          0.00000000	          0.00000000	         47.24534800	        854.14556500	         44.11604200	          0.99381700	          0.00600000	         -0.29047500	          0.00000000	          6.61758700	          0.00000000	
          1.09750000	          0.00000000	          0.00000000	          0.00000000	          1.31012900	          0.00000000	         -0.13774700	          0.00000000	          0.00000000	          0.00000000	         47.48065400	        854.74127700	         44.16150400	          0.99401700	          0.00600000	         -0.29044800	          0.00000000	          6.60823700	          0.00000000	
          1.09800000	          0.00000000	          0.00000000	          0.00000000	          1.31133500	          0.00000000	         -0.13773200	          0.00000000	          0.00000000	          0.00000000	         47.71633700	        855.33215200	         44.20632800	          0.99421600	          0.00600000	         -0.29042100	          0.00000000	          6.59876400	          0.00000000	
          1.09850000	          0.00000000	          0.00000000	          0.00000000	          1.31254100	          0.00000000	         -0.13771800	          0.00000000	          0.00000000	          0.00000000	         47.95239600	        855.91808500	         44.25050400	          0.99441500	          0.00600000	         -0.29039400	          0.00000000	          6.58917100	          0.00000000	
          1.09900000	          0.00000000	          0.00000000	          0.00000000	          1.31374700	          0.00000000	         -0.13770300	          0.00000000	          0.00000000	          0.00000000	         48.18882900	        856.49897100	         44.29402200	          0.99461400	          0.00600000	         -0.29036700	          0.00000000	          6.57945800	          0.00000000	
          1.09950000	          0.00000000	          0.00000000	          0.00000000	          1.31495400	          0.00000000	         -0.13768800	          0.00000000	          0.00000000	          0.00000000	         48.42563400	        857.07470700	         44.33686900	          0.99481300	          0.00600000	         -0.29034000	          0.00000000	          6.56962500	          0.00000000	
          1.10000000	          0.00000000	          0.00000000	          0.00000000	          1.31616000	          0.00000000	         -0.13767400	          0.00000000	          0.00000000	          0.00000000	         48.66280900	        857.64518500	         44.37903600	          0.99501100	          0.00600000	         -0.29031300	          0.00000000	          6.55967500	          0.00000000	
          1.10050000	          0.00000000	          0.00000000	          0.00000000	          1.31736600	          0.00000000	         -0.13765900	          0.00000000	          0.00000000	          0.00000000	         48.90035400	        858.21029900	         44.42051200	          0.99520900	          0.00600000	         -0.29028600	          0.00000000	          6.54960900	          0.00000000	
          1.10100000	          0.00000000	          0.00000000	          0.00000000	          1.31857300	          0.00000000	         -0.13764400	          0.00000000	          0.00000000	          0.00000000	         49.13826500	        858.76994400	         44.46128600	          0.99540700	          0.00600000	         -0.29025800	          0.00000000	          6.53942800	          0.00000000	
          1.10150000	          0.00000000	          0.00000000	          0.00000000	          1.31977900	          0.00000000	         -0.13763000	          0.00000000	          0.00000000	          0.00000000	         49.37654200	        859.32401100	         44.50134700	          0.99560500	          0.00600000	         -0.29023100	          0.00000000	          6.52913300	          0.00000000	
          1.10200000	          0.00000000	          0.00000000	          0.00000000	          1.32098500	          0.00000000	         -0.13761500	          0.00000000	          0.00000000	          0.00000000	         49.61518100	        859.87239200	         44.54068300	          0.99580300	          0.00600000	         -0.29020300	          0.00000000	          6.51872500	          0.00000000	
          1.10250000	          0.00000000	          0.00000000	          0.00000000	          1.32219200	          0.00000000	         -0.13760000	          0.00000000	          0.00000000	          0.00000000	         49.85418100	        860.41498000	         44.57928400	          0.99600000	          0.00600000	         -0.29017500	          0.00000000	          6.50820600	          0.00000000	
